Coordinates
nRows=283
nColumns=2
inDegrees=yes
endheader
time	ankle_angle_r	
6.32056	 -4.322187	
6.35383	 -4.346877	
6.3871	 -4.289501	
6.42036	 -4.319922	
6.45363	 -4.330320	
6.4869	 -4.287720	
6.52016	 -4.345966	
6.55343	 -4.301681	
6.58669	 -4.271260	
6.61996	 -4.348755	
6.65323	 -4.288728	
6.68649	 -4.257202	
6.71976	 -4.347940	
6.75302	 -4.272461	
6.78629	 -4.271840	
6.81956	 -4.317188	
6.85282	 -4.287292	
6.88609	 -4.272130	
6.91935	 -4.333261	
6.95262	 -4.287444	
6.98589	 -4.287597	
7.01915	 -4.287831	
7.05242	 -4.272461	
7.08569	 -4.272461	
7.11895	 -4.303324	
7.15222	 -4.286393	
7.18548	 -4.241943	
7.21875	 -4.318873	
7.25202	 -4.271729	
7.28528	 -4.241943	
7.31855	 -4.287720	
7.35181	 -4.242966	
7.38508	 -4.239705	
7.41835	 -4.286504	
7.45161	 -4.255889	
7.48488	 -4.255793	
7.51815	 -4.304484	
7.55141	 -4.260407	
7.58468	 -4.257202	
7.61794	 -4.316441	
7.65121	 -4.257202	
7.68448	 -4.237965	
7.71774	 -4.291892	
7.75101	 -4.226685	
7.78427	 -4.241943	
7.81754	 -4.318237	
7.85081	 -4.267515	
7.88407	 -4.213995	
7.91734	 -4.302979	
7.9506	 -4.257202	
7.98387	 -4.257202	
8.01714	 -4.321194	
8.0504	 -4.244996	
8.08367	 -4.247753	
8.11694	 -4.284473	
8.1502	 -4.253859	
8.18347	 -4.265582	
8.21673	 -4.275997	
8.25	 -4.284087	
8.28327	 -4.241943	
8.31653	 -4.283893	
8.3498	 -4.272461	
8.38306	 -4.310198	
8.41633	 -4.276577	
8.4496	 -4.283506	
8.48286	 -4.283410	
8.51613	 -4.294166	
8.5494	 -4.283216	
8.58266	 -4.298378	
8.61593	 -4.298282	
8.64919	 -4.282927	
8.68246	 -4.323127	
8.71573	 -4.293005	
8.74899	 -4.287720	
8.78226	 -4.318237	
8.81552	 -4.322943	
8.84879	 -4.297605	
8.88206	 -4.333496	
8.91532	 -4.343188	
8.94859	 -4.293383	
8.98185	 -4.337234	
9.01512	 -4.312380	
9.04839	 -4.290321	
9.08165	 -4.336655	
9.11492	 -4.327349	
9.14819	 -4.302979	
9.18145	 -4.357674	
9.21472	 -4.342318	
9.24798	 -4.292062	
9.28125	 -4.342124	
9.31452	 -4.326769	
9.34778	 -4.296155	
9.38105	 -4.326576	
9.41431	 -4.340513	
9.44758	 -4.294834	
9.48085	 -4.348755	
9.51411	 -4.341448	
9.54738	 -4.325641	
9.58065	 -4.340997	
9.61391	 -4.333496	
9.64718	 -4.280155	
9.68044	 -4.325706	
9.71371	 -4.334012	
9.74698	 -4.272461	
9.78024	 -4.318237	
9.81351	 -4.326415	
9.84677	 -4.282024	
9.88004	 -4.318237	
9.91331	 -4.318237	
9.94657	 -4.287720	
9.97984	 -4.318237	
10.0131	 -4.320493	
10.0464	 -4.272461	
10.0796	 -4.345089	
10.1129	 -4.275297	
10.1462	 -4.266346	
10.1794	 -4.336719	
10.2127	 -4.287720	
10.246	 -4.266636	
10.2792	 -4.337299	
10.3125	 -4.266829	
10.3458	 -4.268271	
10.379	 -4.292103	
10.4123	 -4.271696	
10.4456	 -4.267217	
10.4788	 -4.313089	
10.5121	 -4.231736	
10.5454	 -4.246898	
10.5786	 -4.272461	
10.6119	 -4.246705	
10.6452	 -4.267797	
10.6784	 -4.302979	
10.7117	 -4.261673	
10.745	 -4.268086	
10.7782	 -4.302979	
10.8115	 -4.264099	
10.8448	 -4.249033	
10.878	 -4.287720	
10.9113	 -4.264984	
10.9446	 -4.272461	
10.9778	 -4.302979	
11.0111	 -4.260803	
11.0444	 -4.253698	
11.0776	 -4.272461	
11.1109	 -4.257202	
11.1442	 -4.241943	
11.1774	 -4.296744	
11.2107	 -4.260223	
11.244	 -4.244867	
11.2772	 -4.278116	
11.3105	 -4.257202	
11.3437	 -4.229319	
11.377	 -4.272461	
11.4103	 -4.259643	
11.4435	 -4.231372	
11.4768	 -4.302979	
11.5101	 -4.272461	
11.5433	 -4.287720	
11.5766	 -4.287720	
11.6099	 -4.270600	
11.6431	 -4.274225	
11.6764	 -4.274128	
11.7097	 -4.272461	
11.7429	 -4.289194	
11.7762	 -4.273838	
11.8095	 -4.257202	
11.8427	 -4.302979	
11.876	 -4.304066	
11.9093	 -4.273451	
11.9425	 -4.318237	
11.9758	 -4.317441	
12.0091	 -4.258603	
12.0423	 -4.318237	
12.0756	 -4.288227	
12.1089	 -4.273281	
12.1421	 -4.288033	
12.1754	 -4.333279	
12.2087	 -4.287600	
12.2419	 -4.348732	
12.2752	 -4.302979	
12.3085	 -4.287550	
12.3417	 -4.347955	
12.375	 -4.318237	
12.4083	 -4.272461	
12.4415	 -4.332383	
12.4748	 -4.332190	
12.5081	 -4.302228	
12.5413	 -4.319931	
12.5746	 -4.333496	
12.6079	 -4.273501	
12.6411	 -4.320511	
12.6744	 -4.305446	
12.7077	 -4.300318	
12.7409	 -4.348755	
12.7742	 -4.331973	
12.8075	 -4.286099	
12.8407	 -4.331779	
12.874	 -4.320051	
12.9073	 -4.285810	
12.9405	 -4.333496	
12.9738	 -4.305082	
13.0071	 -4.270261	
13.0403	 -4.318237	
13.0736	 -4.348755	
13.1069	 -4.297998	
13.1401	 -4.290307	
13.1734	 -4.338864	
13.2067	 -4.269681	
13.2399	 -4.321115	
13.2732	 -4.324185	
13.3065	 -4.260273	
13.3397	 -4.321404	
13.373	 -4.348755	
13.4062	 -4.279182	
13.4395	 -4.318237	
13.4728	 -4.325345	
13.506	 -4.276112	
13.5393	 -4.333496	
13.5726	 -4.295408	
13.6058	 -4.283779	
13.6391	 -4.318237	
13.6724	 -4.311246	
13.7056	 -4.276692	
13.7389	 -4.307306	
13.7722	 -4.292144	
13.8054	 -4.276982	
13.8387	 -4.296955	
13.872	 -4.292434	
13.9052	 -4.266824	
13.9385	 -4.292627	
13.9718	 -4.282715	
14.005	 -4.282619	
14.0383	 -4.282856	
14.0716	 -4.257826	
14.1048	 -4.267984	
14.1381	 -4.282232	
14.1714	 -4.262786	
14.2046	 -4.272461	
14.2379	 -4.281942	
14.2712	 -4.263077	
14.3044	 -4.257202	
14.3377	 -4.287720	
14.371	 -4.266296	
14.4042	 -4.241943	
14.4375	 -4.272461	
14.4708	 -4.270111	
14.504	 -4.259358	
14.5373	 -4.302979	
14.5706	 -4.274230	
14.6038	 -4.257202	
14.6371	 -4.272461	
14.6704	 -4.248978	
14.7036	 -4.250071	
14.7369	 -4.302979	
14.7702	 -4.287720	
14.8034	 -4.242360	
14.8367	 -4.302979	
14.87	 -4.264817	
14.9032	 -4.249491	
14.9365	 -4.310429	
14.9698	 -4.272461	
15.003	 -4.263715	
15.0363	 -4.302979	
15.0696	 -4.272461	
15.1028	 -4.278104	
15.1361	 -4.294590	
15.1694	 -4.258913	
15.2026	 -4.270556	
15.2359	 -4.302979	
15.2692	 -4.248427	
15.3024	 -4.291622	
15.3357	 -4.309269	
15.369	 -4.257202	
15.4022	 -4.321270	
15.4355	 -4.312237	
15.4687	 -4.272461	
15.502	 -4.329851	
15.5353	 -4.327786	
15.5685	 -4.262816	
15.6018	 -4.323754	
15.6351	 -4.318237	
15.6683	 -4.272461	
15.7016	 -4.343528	
